<svg width="145" height="75" viewBox="0 0 145 75" fill="none" xmlns="http://www.w3.org/2000/svg">
<g clip-path="url(#clip0_222_1057)">
<path d="M55.8441 35.8555C55.853 35.6485 55.8618 35.4445 55.8706 35.2424C55.8746 35.1408 55.8795 35.0403 55.8834 34.9397C55.8903 34.8401 55.8971 34.7405 55.904 34.6418C55.9177 34.4436 55.9315 34.2463 55.9452 34.0519C55.9649 33.8576 55.9845 33.6642 56.0041 33.4727C56.0395 33.0868 56.1023 32.7116 56.1582 32.3344C56.1867 32.1459 56.2269 31.9612 56.2632 31.7745C56.3025 31.5889 56.3349 31.4003 56.383 31.2175C56.6814 29.9632 57.073 28.6993 57.7856 27.5601C58.3156 26.7178 58.8584 25.8813 59.4581 25.0806C60.0558 24.2789 60.6928 23.5052 61.3838 22.7761C61.9649 22.1804 62.6382 21.6495 63.4126 21.2278C63.873 20.9754 64.3647 20.724 64.9124 20.6128C65.6397 20.4561 66.421 20.49 67.1385 20.6776C67.854 20.8758 68.5077 21.2094 69.0711 21.6185C69.501 21.9222 69.8848 22.2655 70.243 22.6252C70.4256 22.8032 70.5895 22.9927 70.7574 23.1803L70.9949 23.4695C71.0754 23.5652 71.151 23.6638 71.2236 23.7634C71.8184 24.5564 72.3062 25.4055 72.6684 26.2913C72.7096 26.3929 72.7518 26.4934 72.796 26.593L72.8627 26.742L72.9285 26.8948C72.9727 26.9963 73.0178 27.0978 73.0639 27.1984L73.1955 27.5001C73.3741 27.9015 73.5429 28.3009 73.7068 28.7032C74.0298 29.5077 74.3095 30.3278 74.4391 31.1827C74.5941 32.23 74.7247 33.2764 74.8336 34.3314C74.868 34.6409 74.8955 34.9532 74.9239 35.2666L74.9583 35.7395L74.975 36.2094C74.9858 36.5228 75.0064 36.8371 74.9956 37.1514L74.9887 37.6233L74.9848 37.8592C74.9828 37.9376 74.975 38.0159 74.9701 38.0952L74.9033 38.952L74.7904 39.8059C74.7747 39.949 74.7472 40.0902 74.7217 40.2314L74.6471 40.6569C74.6039 40.9422 74.5382 41.2227 74.4803 41.505C74.4057 41.9141 74.2339 42.3019 74.1004 42.6965L74.0504 42.8444L73.9974 42.9914C73.963 43.09 73.9316 43.1887 73.9051 43.2902C73.8776 43.3908 73.855 43.4933 73.8374 43.5977C73.8285 43.65 73.8217 43.7022 73.8148 43.7554C73.8069 43.8076 73.8001 43.8608 73.7942 43.9149C73.7893 43.9672 73.7667 44.0262 73.7333 44.0668C73.6008 44.2321 73.4889 44.4033 73.3898 44.5812C73.2809 44.7543 73.1866 44.9342 73.0983 45.117L72.9697 45.3945L72.8343 45.6711C72.743 45.8558 72.6605 46.0463 72.5604 46.2291C72.4731 46.3838 72.3749 46.5337 72.2719 46.6807C72.2188 46.7532 72.1688 46.8277 72.1109 46.8973L71.9322 47.1033C71.8105 47.2387 71.6908 47.3751 71.5661 47.5076C71.4356 47.6371 71.306 47.7658 71.1814 47.8982C71.1313 47.9505 71.0842 48.0037 71.0322 48.0549L70.8722 48.2038L70.5532 48.5017C70.4472 48.6013 70.3265 48.6893 70.2136 48.7831L70.0418 48.9214C69.9839 48.9668 69.929 49.0142 69.8642 49.0558C69.3656 49.4185 68.8375 49.6883 68.3006 49.9058C67.8285 50.0954 67.3397 50.2124 66.8548 50.3072C66.8009 50.3188 66.7321 50.3014 66.6929 50.3285C66.1825 50.6602 65.5906 50.7482 65.0027 50.7685C64.4099 50.7878 63.8268 50.7462 63.2134 50.8042C63.0809 50.8168 62.9474 50.8226 62.809 50.811C62.7403 50.8071 62.6716 50.8013 62.6029 50.7946C62.5381 50.7849 62.4743 50.7733 62.4105 50.7607C62.2829 50.7366 62.1543 50.7085 62.0267 50.6776L61.8363 50.6311L61.6479 50.5692C61.3966 50.4841 61.1453 50.4078 60.9019 50.3043C60.7792 50.2569 60.6565 50.2105 60.5329 50.1679C60.4102 50.1215 60.2894 50.0702 60.1667 50.0277C60.0136 49.9735 59.8605 49.9213 59.7153 49.8498C59.568 49.7811 59.4188 49.7173 59.2755 49.6409L58.8535 49.3981C58.7151 49.314 58.5845 49.2173 58.4511 49.1254C57.9269 48.7454 57.4597 48.2967 57.0534 47.8102C56.646 47.3238 56.2976 46.8026 55.9796 46.2746C55.8216 46.0076 55.6675 45.7485 55.5183 45.4748C55.4476 45.3317 55.3681 45.1924 55.3043 45.0474L55.1227 44.6112C54.8793 43.9643 54.7478 43.2922 54.6722 42.622C54.5996 41.9508 54.578 41.2787 54.6104 40.6105C54.6702 39.275 54.8862 37.9588 55.2061 36.6794C55.2248 36.6021 55.2503 36.5266 55.2807 36.4522C55.3131 36.3787 55.3543 36.3061 55.3995 36.2365C55.4908 36.0963 55.6066 35.9619 55.745 35.8352C55.7293 35.9899 55.7224 36.1466 55.6949 36.2984C55.5242 37.2848 55.4358 38.2857 55.4231 39.2798C55.4093 40.274 55.4633 41.2633 55.5889 42.2274C55.6733 42.8212 55.7882 43.4063 55.9619 43.9585C56.0473 44.235 56.1513 44.5 56.2701 44.7495L56.3643 44.9333L56.4114 45.0261L56.4713 45.1276C56.5508 45.262 56.6294 45.3994 56.7108 45.5299C57.0328 46.0599 57.3724 46.5647 57.7581 47.024C58.1429 47.4834 58.5747 47.8973 59.0557 48.2473C59.144 48.3092 59.2343 48.3692 59.3246 48.4282C59.4139 48.4881 59.514 48.5326 59.6092 48.5849C59.7064 48.6322 59.7987 48.6874 59.9008 48.727L60.2031 48.8479L60.3542 48.9069L60.5103 48.9552L60.8204 49.0519C61.0285 49.1119 61.2425 49.1564 61.4506 49.2163C61.7941 49.2869 62.1337 49.3711 62.4861 49.4185L62.7481 49.462C62.8335 49.4745 62.9101 49.4784 62.9916 49.4871C63.0701 49.4978 63.1555 49.4968 63.2389 49.4997C63.3223 49.5016 63.4058 49.5065 63.4921 49.5007C63.9024 49.4949 64.3255 49.4475 64.7446 49.3807C64.9546 49.3508 65.1637 49.3043 65.3718 49.2637L65.6829 49.1902C65.7869 49.167 65.89 49.1399 65.9921 49.109C66.8126 48.8846 67.6057 48.5703 68.3036 48.1622L68.5568 48.0027C68.6422 47.9505 68.7158 47.8886 68.7963 47.8325L68.915 47.7464L69.0309 47.6468L69.2635 47.4476C69.5678 47.173 69.8583 46.8741 70.1312 46.555C70.6769 45.9167 71.1598 45.2098 71.5936 44.47L71.8841 43.9459C71.9764 43.7689 72.0598 43.5861 72.1472 43.4053L72.2768 43.1336L72.3916 42.855C72.4672 42.6684 72.5457 42.4837 72.6173 42.2961C72.7449 41.9151 72.8902 41.5389 72.9903 41.1482C73.0433 40.9538 73.1022 40.7614 73.1503 40.5651L73.2809 39.9742C73.3015 39.8755 73.325 39.7779 73.3437 39.6783L73.3918 39.3794L73.488 38.7818L73.5518 38.1803C73.5714 37.9801 73.5969 37.7799 73.6018 37.5778C73.6185 37.1746 73.647 36.7723 73.6322 36.369L73.6234 35.7646C73.6097 35.5654 73.6038 35.3671 73.5832 35.166C73.4899 34.0839 73.4418 32.9688 73.2161 31.8819C73.0001 30.8645 72.6468 29.881 72.2934 28.9178C72.159 28.5417 72.0235 28.1684 71.8822 27.7999C71.8086 27.6162 71.733 27.4382 71.6525 27.2564C71.5661 27.0756 71.4798 26.8938 71.3865 26.7159C71.0243 26.0331 70.6249 25.3736 70.1743 24.7634C70.0605 24.6125 69.9496 24.4587 69.8269 24.3156L69.6482 24.098L69.4608 23.8901C69.3391 23.748 69.2026 23.6242 69.075 23.4898L68.8719 23.3051L68.7708 23.2122L68.6648 23.1271C68.388 22.8921 68.0896 22.6948 67.7843 22.5266C67.7068 22.4879 67.6322 22.4405 67.5527 22.4076L67.3171 22.3032L67.0776 22.2181C66.9981 22.19 66.9157 22.1736 66.8352 22.1494C66.1874 21.9889 65.517 22.0169 64.8712 22.2355C64.5463 22.3448 64.2273 22.4956 63.9191 22.6755C63.6119 22.8583 63.3174 23.0768 63.0328 23.3099C62.8944 23.4337 62.7511 23.5507 62.6186 23.6832C62.5509 23.7489 62.4841 23.8099 62.4154 23.8795L62.2113 24.0913L61.8029 24.5148L61.4103 24.9519L61.214 25.1705L61.0266 25.3958L60.6516 25.8465L60.2943 26.3107C60.2355 26.388 60.1746 26.4644 60.1167 26.5437L59.9479 26.7826C59.4866 27.4121 59.0802 28.0775 58.6925 28.7515C58.5099 29.09 58.3637 29.4468 58.243 29.8133C58.1821 29.9961 58.1124 30.174 58.0535 30.3568C57.9917 30.5386 57.9259 30.7175 57.8484 30.8916C57.552 31.5985 57.2614 32.3093 57.0112 33.0375C56.8767 33.3982 56.7648 33.7676 56.6431 34.1332C56.5832 34.3169 56.5332 34.5036 56.4762 34.6883C56.4222 34.8739 56.3634 35.0577 56.3162 35.2463C56.2662 35.4358 56.0581 35.5847 55.8431 35.8555H55.8441Z" fill="#373737"/>
<path d="M39.5127 19.8682C39.019 18.1478 38.6382 16.5648 38.4684 14.9333C38.33 13.5514 38.2701 12.1327 38.5704 10.7237C38.7874 9.67835 39.0367 8.63876 39.3301 7.60885C39.6226 6.57893 39.9613 5.55676 40.3804 4.56746L40.504 4.27154C40.5462 4.1729 40.5983 4.07039 40.6454 3.97078C40.7386 3.76867 40.8486 3.57139 40.9565 3.37411C41.1842 2.98245 41.4257 2.59563 41.7133 2.22622C42.0509 1.7833 42.4102 1.32299 42.8921 0.968076C43.0481 0.846227 43.2238 0.742752 43.3946 0.637343C43.482 0.586089 43.5752 0.542572 43.6655 0.496153L43.802 0.427492L43.9443 0.368501C44.3202 0.204102 44.7275 0.104495 45.1339 0.0455049L45.4401 0.0116579C45.5422 0.00682266 45.6443 0.00488855 45.7463 0.00198738C45.7974 0.00198738 45.8484 -0.00188084 45.8985 5.32699e-05L46.0496 0.00875677C46.1498 0.0155262 46.2518 0.0174603 46.351 0.030032C46.5482 0.0580766 46.7475 0.0783848 46.9369 0.125771C47.0321 0.147046 47.1293 0.164453 47.2226 0.190563L47.5013 0.270829C48.6085 0.615101 49.5792 1.17116 50.4419 1.81328C51.3037 2.46024 52.0673 3.19714 52.7093 4.01043C52.7819 4.10424 52.8565 4.19611 52.9321 4.28604L53.0459 4.42046L53.1598 4.55972C53.2363 4.65256 53.3139 4.74346 53.3914 4.83436L53.6181 5.10901C53.9244 5.47262 54.2198 5.8372 54.5103 6.20565C55.0885 6.94351 55.6254 7.71039 56.0219 8.5556C56.5028 9.59228 56.9592 10.6357 57.4019 11.6898C57.5344 11.9993 57.661 12.3126 57.7896 12.625L57.9741 13.1008C58.034 13.2594 58.086 13.4189 58.143 13.5785L58.3118 14.0572L58.3962 14.297L58.4688 14.5397C58.564 14.8647 58.6671 15.1877 58.7525 15.5155C59.0626 16.7088 59.2462 17.9302 59.4032 19.1584C59.4297 19.3798 59.4396 19.6032 59.4454 19.8266C59.4405 20.05 59.4366 20.2744 59.4317 20.4978C59.4376 20.9445 59.4297 21.3884 59.5622 21.8371C59.577 21.8913 59.5809 21.959 59.5603 22.0122C59.4837 22.2259 59.4288 22.4386 59.3905 22.6524C59.3708 22.7597 59.3561 22.8661 59.3434 22.9744C59.3257 23.0817 59.3119 23.1891 59.3002 23.2974C59.2756 23.513 59.2609 23.7316 59.2482 23.9502C59.2246 24.1697 59.2001 24.3892 59.1765 24.6097C59.1657 24.7035 59.151 24.7973 59.1343 24.8911C59.1137 24.9839 59.0891 25.0768 59.0636 25.1686C59.0126 25.3534 58.9537 25.5361 58.8919 25.7189C58.8271 25.9007 58.7476 26.0796 58.6769 26.2595C58.6033 26.4384 58.5375 26.6192 58.4561 26.7962L58.2755 27.2198C58.2195 27.3619 58.1488 27.5002 58.0792 27.6385L57.8711 28.0534C57.8004 28.1917 57.714 28.3251 57.6355 28.4605L57.5148 28.6626C57.4745 28.7293 57.4363 28.797 57.3872 28.8638C57.293 28.9963 57.2017 29.1316 57.1035 29.2593L56.7983 29.6287C56.6913 29.7457 56.5823 29.8589 56.4744 29.973C56.0847 30.3598 55.6469 30.6828 55.2023 30.9777C55.1542 31.0126 55.0777 31.0232 55.0482 31.0638C54.6802 31.6073 54.1197 31.9313 53.5396 32.1866C52.9537 32.4428 52.351 32.6314 51.7641 32.9331C51.5108 33.0627 51.2301 33.1556 50.9298 33.2155C50.6441 33.2629 50.3634 33.2832 50.0778 33.3045H49.6459C49.5026 33.3035 49.3603 33.3142 49.217 33.3016C48.9294 33.2832 48.6467 33.2919 48.3621 33.2745L48.0981 33.2658L47.9656 33.261C47.9214 33.2581 47.8782 33.2513 47.834 33.2465C47.6583 33.2252 47.4827 33.2029 47.3079 33.1778L46.7897 33.0618C46.7023 33.0443 46.6199 33.0144 46.5355 32.9883L46.2832 32.907C45.6158 32.6759 44.9925 32.3452 44.4252 31.9574C43.8569 31.5686 43.3426 31.1247 42.8577 30.6683C42.736 30.5542 42.6153 30.4391 42.4975 30.3231L42.3189 30.1499L42.1412 29.9604L41.9645 29.7709C41.9086 29.7061 41.8576 29.6374 41.8036 29.5717C41.6976 29.4382 41.5876 29.3067 41.4954 29.1655C40.6336 27.9451 40.1428 26.5535 39.7748 25.1628C39.602 24.4627 39.4617 23.7577 39.3566 23.0489C39.2575 22.339 39.1731 21.6312 39.1319 20.9204C39.126 20.8343 39.126 20.7492 39.1338 20.6622C39.1437 20.5751 39.1603 20.4891 39.1839 20.4011C39.231 20.227 39.3046 20.052 39.4047 19.8759C39.4401 20.0403 39.4852 20.2038 39.5078 20.3691C39.817 22.5131 40.4442 24.6136 41.2863 26.5496C41.5513 27.1453 41.8419 27.7265 42.1795 28.2603L42.4435 28.6471C42.5358 28.77 42.633 28.887 42.7262 29.0088C42.8244 29.1229 42.9284 29.2254 43.0285 29.3367C43.1453 29.4508 43.2729 29.5707 43.3936 29.6858C43.8854 30.1451 44.385 30.5735 44.9199 30.9381C45.4539 31.3036 46.0222 31.6034 46.6238 31.8123C46.7338 31.8481 46.8447 31.881 46.9556 31.9139C47.0665 31.9458 47.1823 31.9603 47.2952 31.9825C47.5209 32.0318 47.7545 32.0386 47.9842 32.057L48.0706 32.0628H48.1579L48.3317 32.0599C48.4475 32.057 48.5623 32.0599 48.6782 32.0541L49.0246 32.026C49.1404 32.0164 49.2543 32.0154 49.3701 31.9951C49.5556 31.9699 49.7411 31.9516 49.9276 31.9284L50.4851 31.8317C50.5833 31.8181 50.6608 31.7959 50.7443 31.7756L50.8679 31.7456L50.9945 31.705C51.1634 31.6566 51.3341 31.587 51.5039 31.5203C52.3216 31.1702 53.1146 30.6867 53.836 30.1345C54.1963 29.8569 54.5349 29.5571 54.8549 29.2458C55.167 28.9286 55.4546 28.5969 55.7049 28.2507C55.8187 28.0727 55.9394 27.9064 56.0405 27.7052C56.1465 27.5118 56.2584 27.3232 56.3458 27.1163C56.4381 26.9122 56.5401 26.715 56.6157 26.5003L56.7394 26.1841L56.8012 26.0264L56.8532 25.864C56.921 25.6464 56.9995 25.4317 57.0623 25.2122L57.2429 24.5468C57.344 24.0971 57.452 23.6475 57.5236 23.1871C57.608 22.7636 57.6463 22.3323 57.6993 21.9019C57.718 21.6863 57.7288 21.4697 57.7435 21.253L57.7641 20.9281C57.769 20.8198 57.767 20.7105 57.769 20.6022L57.7749 19.9494C57.77 19.7319 57.7582 19.5143 57.7494 19.2967C57.7396 18.8605 57.6836 18.4273 57.6443 17.9931C57.4461 16.2611 56.9975 14.5494 56.3703 12.9335C56.1524 12.3813 55.9345 11.8291 55.7166 11.2759C55.4948 10.7208 55.2494 10.1715 54.9677 9.64257C54.4318 8.6523 53.7654 7.73747 53.1087 6.84197C52.8555 6.49093 52.6033 6.14376 52.3441 5.80335C52.2126 5.63412 52.0811 5.47165 51.9417 5.30726C51.7974 5.14479 51.6531 4.98136 51.503 4.82469C50.9219 4.22222 50.3094 3.65746 49.6577 3.16136C49.0079 2.66623 48.3179 2.23395 47.5995 1.94867C47.2412 1.80845 46.8771 1.6953 46.5159 1.64115C46.1547 1.58699 45.7984 1.58119 45.4548 1.63244C44.7687 1.73302 44.1366 2.06472 43.5998 2.57242C43.3289 2.82772 43.0815 3.11977 42.8528 3.43407C42.629 3.75416 42.4249 4.0936 42.2394 4.44948C42.1923 4.53748 42.151 4.63032 42.1059 4.72025C42.0617 4.81116 42.0166 4.89916 41.9753 4.99876L41.7201 5.57803C41.6328 5.77047 41.5552 5.96582 41.4777 6.16213L41.2441 6.74914L41.0311 7.34291L40.9251 7.63979L40.8289 7.94055L40.6375 8.54109L40.4687 9.1484L40.3853 9.45206L40.3117 9.75861L40.1664 10.3717L40.0437 10.9887C40.0241 11.0912 40.0015 11.1947 39.9838 11.2972L39.9338 11.6076C39.9014 11.8126 39.8798 12.0186 39.868 12.2256C39.8611 12.4335 39.8611 12.6424 39.8611 12.8503V13.1617L39.867 13.4731C39.868 13.68 39.8621 13.886 39.8464 14.091L39.8111 14.7119L39.7915 15.0223L39.7807 15.3337L39.7561 15.9565L39.7473 16.5802L39.7414 16.8926L39.7443 17.2049L39.7483 17.8306L39.7679 18.4573C39.7748 18.6662 39.7787 18.875 39.7934 19.0839C39.8052 19.2957 39.6423 19.5172 39.5137 19.8653L39.5127 19.8682Z" fill="#373737"/>
<path d="M36.9232 19.9997C36.7426 18.1516 36.4295 16.5366 36.0948 14.9545C35.8033 13.6065 35.4107 12.3135 35.1515 10.9674C34.965 9.96355 34.6696 8.98102 34.3163 8.02267C33.9639 7.06432 33.5526 6.12821 33.1021 5.21338L32.9726 4.93777C32.9294 4.8459 32.8842 4.7637 32.841 4.67569C32.7566 4.49969 32.6614 4.33336 32.5692 4.16412C32.3758 3.83435 32.1746 3.50942 31.9361 3.22608C31.6534 2.8818 31.3069 2.6149 30.985 2.3654C30.879 2.27546 30.7641 2.20777 30.6532 2.1304C30.5963 2.09365 30.5374 2.06561 30.4795 2.03176L30.3931 1.98244L30.3028 1.94183C30.0663 1.82288 29.814 1.75035 29.5559 1.69716L29.3596 1.66428L29.1593 1.64881C29.126 1.64687 29.0926 1.64204 29.0582 1.64204L28.9562 1.64397C28.8884 1.64591 28.8197 1.64204 28.751 1.64784C28.6126 1.66331 28.4742 1.66815 28.3349 1.6991C28.2652 1.71263 28.1955 1.72134 28.1258 1.73874L27.9167 1.79387C27.0726 2.0337 26.2629 2.52786 25.512 3.10133C24.7582 3.67866 24.0446 4.32852 23.3222 4.98612C23.2398 5.06155 23.1593 5.13891 23.0798 5.21724L22.962 5.33523L22.8521 5.45611C22.7795 5.53734 22.7088 5.61857 22.6381 5.70174C22.5694 5.78587 22.5037 5.87388 22.4379 5.96091C22.1739 6.30808 21.9403 6.68137 21.7135 7.05755C21.263 7.81282 20.8576 8.59227 20.3718 9.33593C19.7809 10.2488 19.2371 11.2072 18.8269 12.21C18.7032 12.504 18.5962 12.8028 18.4922 13.1026L18.3508 13.5533C18.3057 13.7041 18.2694 13.8598 18.2281 14.0136C18.0583 14.6248 17.9396 15.2485 17.8169 15.8674C17.6117 16.996 17.4753 18.139 17.4783 19.2782C17.4812 19.4833 17.4675 19.6873 17.4488 19.8923C17.438 20.0973 17.4282 20.3023 17.4223 20.5074C17.4027 20.9174 17.4567 21.3265 17.6157 21.7162C17.6363 21.7626 17.6392 21.8235 17.6304 21.8728C17.5902 22.0711 17.5715 22.2693 17.5695 22.4666C17.5686 22.5653 17.5715 22.6639 17.5774 22.7616C17.5882 22.8592 17.6029 22.9559 17.6186 23.0527C17.651 23.2461 17.6932 23.4385 17.7364 23.63C17.7904 23.8186 17.8444 24.0071 17.8984 24.1976C17.9209 24.2779 17.9396 24.3601 17.9563 24.4413C17.9769 24.5216 17.9965 24.6028 18.0142 24.685C18.0485 24.8485 18.077 25.0138 18.1015 25.1811C18.129 25.3475 18.1663 25.5099 18.1987 25.6753C18.2331 25.8397 18.2635 26.007 18.3194 26.1637C18.4029 26.4122 18.4725 26.6714 18.5776 26.9083L18.7248 27.2719C18.7749 27.3928 18.8377 27.504 18.8926 27.621L18.978 27.7951C19.0065 27.8531 19.034 27.9131 19.0673 27.9634C19.1321 28.0688 19.191 28.1771 19.2578 28.2825L19.4727 28.5958L19.7093 28.9024C19.9968 29.2544 20.2795 29.6286 20.6113 29.9681C20.6466 30.0068 20.6662 30.0744 20.7114 30.0899C21.2689 30.2949 21.6919 30.6373 22.1395 30.9854C22.5822 31.3297 23.0572 31.6769 23.6147 31.7939C23.8513 31.8432 24.078 31.9012 24.2979 31.9592C24.5354 32.0115 24.7857 32.0724 25.0311 32.1401L25.404 32.2136C25.5287 32.2358 25.6553 32.2697 25.7809 32.2764C26.0322 32.2967 26.2884 32.3277 26.5367 32.2929L26.7684 32.2716L26.8842 32.2619C26.9225 32.2571 26.9607 32.2494 26.998 32.2436L27.4544 32.173C27.6046 32.1381 27.7538 32.1053 27.904 32.0733C27.9796 32.0598 28.0522 32.0347 28.1268 32.0144L28.3486 31.9515C28.9365 31.7736 29.5078 31.5289 30.0574 31.2243C30.6071 30.9206 31.1351 30.558 31.6455 30.1615C31.7731 30.0619 31.9007 29.9623 32.0254 29.8578L32.2138 29.7031L32.3856 29.5455L32.5564 29.3878C32.6114 29.3327 32.6614 29.2718 32.7144 29.2147C32.8194 29.0977 32.9264 28.9826 33.0177 28.8531C33.4427 28.3009 33.8176 27.6984 34.1504 27.0698C34.4821 26.4412 34.7805 25.7904 35.0534 25.127C35.3174 24.4597 35.5608 23.7818 35.7699 23.0904C35.9731 22.398 36.1635 21.6978 36.3009 20.9861C36.3186 20.9 36.3431 20.8159 36.3745 20.7327C36.403 20.6486 36.4383 20.5654 36.4795 20.4832C36.563 20.3188 36.6729 20.1554 36.8093 19.9929C36.8074 20.1689 36.8162 20.3468 36.8025 20.5228C36.7043 21.662 36.5453 22.7993 36.296 23.923C36.0437 25.0458 35.7041 26.1588 35.2202 27.2303C34.9169 27.8928 34.5665 28.5407 34.1347 29.1586L33.7902 29.6132C33.6675 29.7611 33.535 29.9052 33.4074 30.0503C33.2709 30.1915 33.1217 30.3268 32.9784 30.4632C32.8401 30.5841 32.7066 30.6943 32.5682 30.8094C32.0156 31.2659 31.4276 31.7097 30.7887 32.0946C30.1507 32.4805 29.4607 32.8044 28.7353 33.0307C28.6028 33.0694 28.4713 33.11 28.3398 33.1516C28.2083 33.1922 28.0728 33.2203 27.9393 33.257C27.6733 33.3354 27.3995 33.3789 27.1266 33.435L27.0245 33.4553L26.9215 33.4688L26.7154 33.4949C26.5779 33.5114 26.4386 33.5307 26.3002 33.5423L25.885 33.5578C25.7466 33.5607 25.6062 33.5694 25.4698 33.5568C25.249 33.5423 25.0271 33.5288 24.8063 33.5056L24.1546 33.4001C24.0495 33.3856 23.9298 33.3547 23.814 33.3267L23.6403 33.2841L23.4744 33.2328C23.2506 33.1681 23.0415 33.0868 22.8295 33.0085C21.8323 32.612 20.9273 32.0898 20.0822 31.4718C19.6612 31.1614 19.2597 30.82 18.8759 30.4564C18.4981 30.0831 18.1418 29.6818 17.8198 29.2389C17.6677 29.0097 17.5077 28.7776 17.3889 28.5446L17.1985 28.1945C17.1661 28.1365 17.1357 28.0775 17.1102 28.0175L17.0297 27.8386C16.9237 27.5997 16.8089 27.3619 16.7264 27.1172L16.5929 26.7526L16.5272 26.5698L16.4722 26.3851C16.4015 26.1385 16.323 25.8929 16.2612 25.6453L16.0924 24.8997C16.004 24.3998 15.9147 23.9008 15.8725 23.3989C15.5054 19.6728 15.9932 15.9545 17.2034 12.4334C17.4125 11.8367 17.6863 11.27 17.9749 10.714C18.2615 10.156 18.5736 9.61541 18.8652 9.06419C19.4177 8.03524 19.9321 6.97922 20.6005 5.99669C20.8576 5.61374 21.1501 5.24916 21.4534 4.89231C21.6065 4.71534 21.7685 4.53837 21.9255 4.3672C22.0855 4.20087 22.2416 4.03067 22.3996 3.86143C23.0091 3.21157 23.6589 2.58879 24.3744 2.02113C25.09 1.4554 25.8693 0.936089 26.7595 0.559904C27.2051 0.374229 27.6743 0.217566 28.1729 0.131498C28.6705 0.0454303 29.1927 0.023188 29.7129 0.0908819C30.2321 0.156642 30.7435 0.313305 31.2078 0.542497C31.673 0.771689 32.0951 1.06761 32.4592 1.40318C32.8293 1.74068 33.1492 2.113 33.4358 2.49982C33.7156 2.88954 33.9619 3.29377 34.1818 3.70574C34.2377 3.80824 34.2858 3.91365 34.3388 4.01713C34.3899 4.1206 34.4439 4.22601 34.487 4.32659L34.7609 4.93583C34.8551 5.13795 34.9376 5.3449 35.022 5.55088L35.2732 6.17076L35.5049 6.79838L35.6197 7.11267L35.7247 7.43083L35.9338 8.06619L36.1223 8.70832L36.2155 9.02938L36.2989 9.35334L36.4648 10.0022L36.6091 10.656L36.6807 10.9828L36.7426 11.3116C36.7828 11.5282 36.8368 11.7429 36.8947 11.9567C36.9467 12.1713 37.0056 12.386 37.0635 12.6017C37.092 12.709 37.1234 12.8173 37.1499 12.9247L37.2216 13.2506C37.2667 13.4682 37.307 13.6877 37.3325 13.9082L37.3884 14.5754L37.4139 14.9091L37.4287 15.2427L37.4532 15.9109V16.5782V16.9118L37.4424 17.2445L37.4169 17.9108L37.3727 18.5742C37.357 18.7957 37.3433 19.0162 37.3187 19.2367C37.2971 19.46 37.0999 19.667 36.9173 19.9997H36.9232Z" fill="#373737"/>
<path d="M20.4569 35.5586C20.3675 35.3623 20.2802 35.1679 20.1928 34.9765C20.1497 34.8807 20.1065 34.7869 20.0633 34.6921C20.0171 34.5993 19.972 34.5065 19.9259 34.4146C19.8346 34.2318 19.7453 34.05 19.6559 33.8711C19.5617 33.6941 19.4685 33.5191 19.3762 33.345C19.1966 32.9969 18.9964 32.6633 18.8128 32.3306C18.7206 32.1643 18.6175 32.0028 18.5233 31.8393C18.4251 31.6769 18.3368 31.5125 18.2347 31.3529C17.5692 30.2563 16.8243 29.2476 16.1725 28.1548C15.6837 27.3435 15.1223 26.5737 14.4971 25.8591C13.8748 25.1425 13.2024 24.4675 12.5154 23.8176C11.9844 23.3302 11.4357 22.866 10.8232 22.5624C10.4561 22.3786 10.0665 22.2896 9.69743 22.2055C9.20176 22.0856 8.69824 22.0837 8.19767 22.1833C7.70102 22.2955 7.20633 22.5063 6.75385 22.8206C6.41032 23.0498 6.09427 23.3389 5.79686 23.6484C5.64571 23.8002 5.50732 23.9694 5.365 24.1329L5.16182 24.3901C5.09311 24.4742 5.02735 24.5632 4.96355 24.6531C4.44237 25.362 3.97516 26.1231 3.50109 26.8909C3.4471 26.9789 3.39508 27.0679 3.34404 27.1578L3.26945 27.2932L3.2027 27.4286C3.15952 27.5185 3.11633 27.6094 3.07511 27.7013C3.03486 27.7932 2.99953 27.8879 2.96321 27.9817C2.81697 28.357 2.70605 28.7486 2.60201 29.1403C2.39688 29.9265 2.23983 30.7224 2.00328 31.5076C1.71766 32.4698 1.48799 33.462 1.39376 34.4581C1.36333 34.7511 1.34861 35.0441 1.33978 35.3362L1.33683 35.7723L1.35646 36.2123C1.37119 36.5054 1.37806 36.7974 1.41535 37.0885L1.4605 37.5246L1.4821 37.7422C1.48897 37.8148 1.50271 37.8863 1.51252 37.9588L1.62638 38.7451L1.77852 39.5235C1.80109 39.6541 1.83544 39.7818 1.86882 39.9094L1.96893 40.2924C2.03077 40.5486 2.11812 40.7981 2.20352 41.0467C2.31835 41.4064 2.4116 41.7739 2.52251 42.1375L2.5657 42.2729L2.61968 42.4044C2.65698 42.4914 2.69624 42.5765 2.74041 42.6607C2.78458 42.7448 2.83169 42.826 2.88469 42.9053C2.91119 42.945 2.93867 42.9837 2.96812 43.0214C2.99953 43.0581 3.03192 43.0949 3.06627 43.1297C3.09964 43.1635 3.12516 43.2138 3.13105 43.2593C3.15461 43.445 3.19878 43.6239 3.25571 43.797C3.32147 43.9652 3.40097 44.1277 3.48833 44.2863C3.5325 44.3656 3.57666 44.4449 3.62476 44.5213L3.77984 44.7447C3.88682 44.8917 3.98792 45.0425 4.09785 45.1866C4.19306 45.3075 4.27943 45.4352 4.35992 45.5667C4.40114 45.6315 4.43746 45.7011 4.47966 45.7659L4.60334 45.9612C4.68578 46.0918 4.76234 46.2281 4.84675 46.3577C4.93509 46.4834 5.02539 46.6082 5.11962 46.73C5.15691 46.7774 5.19323 46.8277 5.23249 46.8741L5.35322 47.0076L5.59663 47.2764C5.67712 47.3664 5.7684 47.4418 5.85379 47.525L5.98434 47.6478C6.02752 47.6884 6.07071 47.7319 6.11586 47.7648C6.45841 48.0588 6.8677 48.315 7.30056 48.5423C7.67942 48.7415 8.06123 48.961 8.47053 49.1341C8.51568 49.1535 8.5569 49.2057 8.60009 49.2047C9.15465 49.1825 9.64247 49.3343 10.1499 49.4804C10.6525 49.6244 11.1844 49.7637 11.7027 49.6728C11.7576 49.6631 11.8126 49.6544 11.8676 49.6477C11.9225 49.6409 11.9746 49.6293 12.0285 49.6225C12.0815 49.6148 12.1355 49.608 12.1895 49.6032L12.3623 49.5771C12.4781 49.5616 12.5949 49.549 12.7127 49.5384L12.8903 49.5239L13.066 49.4997C13.2996 49.4668 13.5411 49.4484 13.7698 49.3885C13.8856 49.3624 14.0004 49.3343 14.1143 49.3034C14.2272 49.2686 14.3351 49.2231 14.4421 49.1777C15.508 48.7251 16.465 48.0878 17.2944 47.2697C17.7096 46.8616 18.0894 46.409 18.4447 45.9293C18.6195 45.6895 18.7981 45.4419 18.9581 45.1944C19.0307 45.0706 19.1102 44.9516 19.177 44.823C19.2398 44.6925 19.3036 44.5619 19.3644 44.4294C19.6147 43.8366 19.7914 43.2051 19.9298 42.5649C20.0652 41.9228 20.1683 41.2681 20.2262 40.6066C20.3469 39.2847 20.343 37.9395 20.1928 36.6021C20.184 36.5208 20.182 36.4396 20.186 36.3574C20.1879 36.2752 20.1948 36.192 20.2076 36.1079C20.2341 35.9387 20.2841 35.7646 20.3577 35.5818C20.4068 35.7385 20.4657 35.8932 20.504 36.0538C20.7435 37.0904 20.9231 38.1436 21.0055 39.2112C21.088 40.2779 21.0821 41.361 20.929 42.4431C20.8269 43.1123 20.6728 43.7825 20.4313 44.442C20.3116 44.7718 20.1654 45.0977 19.9887 45.4158L19.8493 45.6527L19.7786 45.7698L19.7099 45.8723C19.6186 46.0086 19.5283 46.145 19.4322 46.2804C19.0543 46.8248 18.6391 47.3644 18.1689 47.8644C17.6988 48.3644 17.1727 48.8237 16.5965 49.2144C16.4905 49.2831 16.3865 49.3537 16.2825 49.4252C16.1794 49.4978 16.0675 49.5577 15.9615 49.6264C15.8526 49.6912 15.7495 49.7656 15.6376 49.8246L15.3039 50.0084L15.136 50.1002L14.9633 50.1805L14.6168 50.341C14.3832 50.4426 14.1427 50.5219 13.9023 50.607C13.5106 50.7162 13.1141 50.8178 12.7146 50.8739L12.4153 50.9232C12.3132 50.9387 12.2003 50.9464 12.0933 50.958C11.9834 50.9716 11.8794 50.9716 11.7733 50.9774C11.6673 50.9812 11.5613 50.988 11.4583 50.9851C10.9567 50.9899 10.4699 50.9493 9.98796 50.8845C9.74651 50.8555 9.508 50.8101 9.26949 50.7685C9.15072 50.7453 9.03294 50.7182 8.91418 50.693C8.79541 50.6689 8.67763 50.6399 8.56083 50.6089C7.62151 50.371 6.69888 50.0296 5.82631 49.5229L5.50339 49.3208C5.39542 49.2541 5.29334 49.1719 5.18832 49.0964L5.03324 48.9814L4.8919 48.8595L4.61021 48.6148C4.24606 48.2793 3.91136 47.9224 3.60807 47.5462C2.99953 46.7948 2.49797 45.9806 2.07984 45.1363L1.80011 44.5435C1.71079 44.3443 1.63227 44.1422 1.54786 43.942L1.42321 43.6413L1.31328 43.3357C1.24064 43.1316 1.16408 42.9286 1.09538 42.7235C0.972688 42.3096 0.829386 41.9006 0.730252 41.4809C0.67725 41.272 0.618358 41.0641 0.570264 40.8542L0.436777 40.2227C0.415183 40.1173 0.390645 40.0129 0.371015 39.9065L0.318994 39.5883L0.214953 38.952L0.140358 38.3118C0.116801 38.0981 0.0863739 37.8854 0.0765587 37.6697C0.0500576 37.2403 0.00981521 36.8119 0.0117783 36.3816L0 35.7356C0.00687065 35.519 0.00588913 35.3004 0.0186489 35.0848C0.0726326 33.9108 0.366107 32.7812 0.596765 31.6527C0.817607 30.5947 0.999189 29.5223 1.34076 28.4769C1.47032 28.0697 1.63718 27.6723 1.81483 27.2777C1.90611 27.0814 2.00427 26.8832 2.09947 26.6907C2.19861 26.5021 2.2948 26.3116 2.39099 26.1211C2.76495 25.3891 3.18307 24.6705 3.66893 23.9839C3.7926 23.8137 3.91234 23.6406 4.04681 23.4762L4.2441 23.2267L4.45316 22.984C4.58861 22.8196 4.74566 22.6687 4.8919 22.5111C4.96944 22.4347 5.04993 22.3612 5.12845 22.2858L5.24721 22.1736L5.37285 22.0663C5.70166 21.7761 6.07071 21.517 6.46528 21.2897C6.56638 21.2356 6.66158 21.1746 6.76759 21.1272L7.08168 20.9812L7.4095 20.8574C7.51943 20.8168 7.63427 20.7888 7.74715 20.7549C8.65898 20.5045 9.66995 20.5354 10.5553 20.8265C11.0038 20.9696 11.4249 21.164 11.8185 21.3893C12.2111 21.6175 12.5713 21.8806 12.9149 22.1572C13.0807 22.3003 13.2505 22.4405 13.4056 22.5923C13.4832 22.6668 13.5666 22.7422 13.6392 22.8157L13.8571 23.0382L14.2929 23.4849L14.713 23.9462L14.923 24.1773L15.1252 24.4152L15.5286 24.892L15.9154 25.3833C15.9792 25.4655 16.0449 25.5467 16.1077 25.6299L16.2923 25.8823C16.7938 26.5486 17.2424 27.2516 17.6752 27.9634C17.8794 28.3202 18.1316 28.6509 18.3613 28.9981C18.4771 29.1712 18.6018 29.3405 18.7049 29.5203C18.8109 29.6983 18.912 29.8801 19.0032 30.0667C19.3536 30.8229 19.6677 31.5956 19.9229 32.3847C20.0603 32.7774 20.1683 33.1758 20.2861 33.5733C20.343 33.7725 20.3901 33.9726 20.4421 34.1728C20.4922 34.373 20.5462 34.5722 20.5884 34.7734C20.6335 34.9774 20.5197 35.2163 20.4549 35.5615L20.4569 35.5586Z" fill="#373737"/>
<path d="M14.1765 69.7324C13.568 69.2702 13.0124 68.7857 12.5197 68.2557C12.027 67.7258 11.601 67.1504 11.2584 66.5247C11.0896 66.2114 10.9385 65.8884 10.8138 65.5528C10.6931 65.2172 10.5851 64.873 10.5144 64.52C10.3613 63.815 10.3211 63.081 10.3682 62.3451C10.4114 61.7204 10.5174 61.0947 10.6774 60.4816C10.8393 59.8665 11.0435 59.2708 11.3193 58.6703C11.6 58.0833 11.9357 57.5272 12.3057 56.9973C12.6836 56.476 13.09 55.9722 13.5336 55.5061C14.1902 54.8098 14.8636 54.1406 15.5428 53.484C16.222 52.8273 16.9071 52.1813 17.5942 51.5431L18.6257 50.5886L19.14 50.1138L19.6426 49.6447C20.3071 49.0152 20.9549 48.374 21.5831 47.7184C22.0846 47.1971 22.5793 46.672 23.0524 46.1353C23.5255 45.5986 23.9799 45.0493 24.3794 44.4836C24.614 44.147 24.8231 43.7892 24.9693 43.472C25.1666 43.0562 25.3707 42.6433 25.6102 42.2458C26.2433 41.184 26.9706 40.1579 27.8138 39.2083C28.6559 38.2596 29.6237 37.3863 30.721 36.6736C30.9252 36.5363 31.1391 36.4125 31.3512 36.2858C31.5681 36.1669 31.784 36.045 32.0078 35.9387C32.4524 35.7191 32.9108 35.5228 33.3819 35.3633C34.3222 35.0374 35.3028 34.8353 36.2804 34.7511C36.403 34.7376 36.5248 34.7308 36.6474 34.724C36.7692 34.7182 36.8918 34.7086 37.0136 34.7066C37.258 34.7028 37.4984 34.696 37.7526 34.7066C38.2542 34.7231 38.7548 34.7734 39.2445 34.8633C40.2241 35.0441 41.1673 35.3642 42.0311 35.8042C43.6123 36.603 45.0552 37.5614 46.3409 38.7044C47.6169 39.8504 48.7241 41.1869 49.4985 42.6984C49.6192 42.9285 49.7321 43.1616 49.844 43.3956L49.9902 43.6974C50.0383 43.7912 50.0913 43.8869 50.1443 43.9826C50.3662 44.3695 50.6292 44.7592 50.9099 45.1392C51.4694 45.9032 52.1054 46.6333 52.7778 47.3286C53.5699 48.1468 54.4218 48.9146 55.3032 49.6486L55.9707 50.196L56.6538 50.7501C57.1092 51.1205 57.5637 51.4938 58.0152 51.8728C58.8357 52.5624 59.6455 53.2741 60.4415 54.0158C61.2375 54.7585 62.0207 55.5312 62.7736 56.3706C63.3154 56.975 63.7708 57.6761 64.188 58.4217C64.29 58.6113 64.3921 58.8008 64.4942 58.9894C64.5864 59.1751 64.6856 59.3579 64.7847 59.5406C64.8789 59.7273 64.984 59.9081 65.086 60.0938C65.1371 60.1866 65.1891 60.2795 65.2441 60.3713C65.3 60.4622 65.355 60.5551 65.409 60.6489C65.462 60.7388 65.5061 60.8616 65.5189 60.9651C65.6131 61.8055 65.724 62.6284 65.7859 63.4727C65.8124 63.8943 65.83 64.3218 65.8114 64.7521C65.8084 64.9677 65.7859 65.1824 65.7692 65.3991C65.7417 65.6137 65.7172 65.8313 65.674 66.0441C65.5405 66.7771 65.248 67.4782 64.8848 68.1203C64.6993 68.4395 64.5001 68.747 64.2881 69.0419C64.0751 69.335 63.8542 69.6183 63.6304 69.8939C63.2742 70.3281 62.8982 70.7372 62.5105 71.1192C62.1199 71.505 61.6998 71.8822 61.262 72.2236C60.3846 72.9092 59.4207 73.4904 58.3891 73.9275C57.4842 74.3076 56.5193 74.5281 55.5574 74.6422C55.4505 74.6547 55.3229 74.6248 55.2384 74.6605C54.6947 74.8781 54.1166 74.9787 53.5384 74.9942C53.2489 75.0058 52.9603 74.9855 52.6737 74.9613C52.3881 74.9255 52.1025 74.8868 51.8218 74.8249C51.5401 74.7727 51.2643 74.6944 50.9875 74.6248C50.7146 74.5435 50.4398 74.47 50.1708 74.382C49.899 74.3027 49.632 74.2099 49.3601 74.1325C49.2247 74.0929 49.0912 74.0474 48.9538 74.0097C48.8173 73.972 48.6799 73.9333 48.5425 73.8956C48.3109 73.8318 48.0606 73.7505 47.8653 73.6848C47.7622 73.65 47.6591 73.6123 47.5561 73.5736C47.4501 73.5388 47.3441 73.502 47.239 73.4643C47.026 73.3879 46.8121 73.3105 46.5981 73.2341C46.3841 73.1529 46.1643 73.0804 45.9454 73.002C45.0679 72.6965 44.163 72.4083 43.2423 72.2564C42.1018 72.0698 40.9602 71.8909 39.8217 71.7487C39.2524 71.6801 38.6831 71.6163 38.1197 71.5756C37.5583 71.536 37.0037 71.5282 36.4315 71.5437C35.29 71.5795 34.1348 71.681 32.9864 71.8242C31.837 71.9683 30.6916 72.1617 29.5628 72.4218C28.9405 72.5611 28.3251 72.7226 27.7146 72.8966L27.2602 73.034C27.11 73.0823 26.9628 73.1355 26.8126 73.1858L26.3532 73.3444C26.1991 73.3985 26.0441 73.4517 25.886 73.4962C25.728 73.5417 25.5729 73.5929 25.4139 73.6326L24.9379 73.7525L24.457 73.8511C24.297 73.884 24.134 73.9053 23.9731 73.9323C23.3262 74.0281 22.6735 74.0735 22.0238 74.061C20.7242 74.0387 19.4414 73.7796 18.2577 73.3115C17.0739 72.8415 15.9884 72.1713 15.0373 71.3638C14.576 70.9761 14.2481 70.4461 14.0774 69.8282C14.2953 70.0158 14.524 70.1869 14.7428 70.3707C16.1513 71.5679 17.8493 72.3967 19.62 72.7274C21.3946 73.061 23.2291 72.8879 24.985 72.3522C25.1224 72.3154 25.2559 72.2642 25.3923 72.2216L25.5955 72.1549L25.7967 72.0804L26.6811 71.7536C27.3073 71.5428 27.9296 71.359 28.5509 71.2072C29.7945 70.8948 31.0381 70.6676 32.2895 70.478C33.5409 70.2904 34.7963 70.1483 36.0772 70.0777C36.2362 70.067 36.3981 70.0612 36.5601 70.0564C36.723 70.0525 36.881 70.0419 37.0469 70.0438H37.5396L38.0324 70.0622C38.6812 70.0989 39.3172 70.1579 39.9473 70.2343C40.8621 70.3446 41.772 70.4413 42.6848 70.5544C43.5966 70.6685 44.5084 70.7972 45.4134 70.9896C46.1407 71.1463 46.8651 71.3348 47.5894 71.5611L48.1342 71.7439C48.3158 71.8058 48.4993 71.8803 48.6819 71.947L49.1707 72.1317C49.3277 72.1945 49.4867 72.2439 49.6467 72.2961C51.1769 72.7932 52.7738 72.9972 54.3217 72.8164C55.8696 72.6433 57.3585 72.0853 58.6777 71.2372C59.3353 70.8117 59.9537 70.3175 60.5151 69.7692C60.6525 69.6338 60.7978 69.4878 60.9332 69.3417C61.0706 69.1967 61.2022 69.0478 61.3317 68.8988C61.5899 68.6 61.8284 68.2915 62.0473 67.9753C62.484 67.3409 62.8374 66.6688 63.0739 65.9628C63.3085 65.2579 63.4381 64.5219 63.4391 63.7715C63.44 63.4234 63.4204 63.0723 63.3674 62.7213C63.3222 62.3702 63.2418 62.0202 63.1505 61.671C63.0504 61.3239 62.9404 60.9757 62.8001 60.6353L62.697 60.3791L62.5822 60.1257C62.5429 60.0425 62.5076 59.9536 62.4654 59.8752L62.3417 59.6364C62.005 58.9991 61.5751 58.3821 61.1001 57.7874C60.624 57.1926 60.1048 56.6172 59.5591 56.0583C59.0114 55.5003 58.4431 54.9558 57.8611 54.4191C57.2761 53.8853 56.6823 53.3573 56.0786 52.8351L54.2491 51.2694C53.6287 50.7385 53.0202 50.1921 52.4234 49.6302C51.6147 48.8672 50.8638 48.0423 50.161 47.1671C49.8077 46.732 49.47 46.2804 49.1412 45.8162C48.8154 45.351 48.4924 44.8685 48.2068 44.3298C47.294 42.6026 46.0229 41.0931 44.6046 39.8224C44.0511 39.3282 43.4779 38.8601 42.8683 38.4433C42.2578 38.0314 41.6139 37.6668 40.9308 37.4028C40.2761 37.1417 39.5959 36.9599 38.9099 36.8477C38.5663 36.7955 38.2208 36.7607 37.8743 36.7462C37.788 36.7423 37.7016 36.7433 37.6152 36.7413L37.4857 36.7394L37.3522 36.7423C37.1735 36.7462 36.9949 36.75 36.8172 36.7636C36.4619 36.781 36.1106 36.8255 35.7621 36.8757C35.4156 36.9347 35.0711 37.0005 34.7345 37.0943C34.0592 37.2703 33.4124 37.5275 32.7979 37.8467C32.1845 38.1687 31.6064 38.5594 31.0665 39.0062C30.5296 39.4558 30.0251 39.9529 29.5618 40.4964C28.6333 41.5805 27.8442 42.8106 27.1522 44.1054L27.0226 44.3511L26.9579 44.4739L26.8774 44.6219L26.7949 44.7708L26.7105 44.91C26.6546 45.0038 26.5976 45.0957 26.5397 45.1827C26.311 45.5396 26.0686 45.8684 25.8232 46.1933C25.3285 46.8374 24.8093 47.4447 24.2724 48.0327C23.7355 48.6206 23.182 49.1883 22.6146 49.7385C22.3329 50.0171 22.0424 50.284 21.7558 50.5557C21.4633 50.8207 21.1747 51.0905 20.8773 51.3487L19.1322 52.8795C18.559 53.3882 17.9868 53.8979 17.4302 54.4152C16.3162 55.449 15.2405 56.5089 14.3041 57.6307C13.8457 58.1858 13.4767 58.797 13.1891 59.4072L13.0821 59.6354C13.0468 59.7108 13.0203 59.7882 12.9889 59.8636L12.8966 60.0889C12.8662 60.1644 12.8387 60.2485 12.8092 60.3268L12.7199 60.5647L12.6375 60.8026L12.5521 61.0386C12.5266 61.1179 12.5001 61.1962 12.4726 61.2736C12.3597 61.5869 12.2733 61.9031 12.1938 62.2184C12.1251 62.5337 12.0613 62.8499 12.0299 63.1642C11.9563 63.7928 11.971 64.4165 12.0711 65.0287C12.1182 65.3352 12.1958 65.6369 12.289 65.9358C12.3823 66.2346 12.4971 66.5305 12.6345 66.8197C12.9074 67.3999 13.2598 67.9598 13.6769 68.4956C13.8889 68.7663 13.9282 69.1783 14.1794 69.7334L14.1765 69.7324Z" fill="#373737"/>
<path d="M46.4467 49.6409C46.4369 49.4146 46.3161 49.2018 46.1405 49.0771C46.0531 49.0142 45.952 48.9717 45.848 48.9523C45.7959 48.9427 45.7429 48.9388 45.6919 48.9407H45.6674L45.6507 48.9427L45.6163 48.9446C45.4347 48.9572 45.2492 48.9301 45.0755 48.8634C44.7271 48.7289 44.4365 48.4311 44.3089 48.0617C44.2765 47.9698 44.2559 47.8731 44.2432 47.7745C44.2275 47.6691 44.2127 47.5636 44.197 47.4592C44.1882 47.407 44.1843 47.3548 44.1715 47.3025L44.1332 47.1488L44.095 46.997L44.0763 46.9215L44.0498 46.848L43.9448 46.556C43.9046 46.4612 43.8574 46.3693 43.8143 46.2765C43.775 46.1827 43.719 46.0957 43.667 46.0086C43.614 45.9216 43.5669 45.8326 43.5031 45.7523L43.351 45.5444C43.299 45.4767 43.2381 45.4158 43.1822 45.351C43.0742 45.2195 42.9407 45.1102 42.819 44.9942C42.5559 44.7805 42.2831 44.5822 41.9808 44.4372C41.3869 44.1258 40.7244 43.9778 40.0531 43.9546L39.9588 43.9498H39.8568H39.6536H39.2472L38.4336 43.9565L36.8062 43.9807L35.1788 44.0126L34.9766 44.0175L34.7921 44.031L34.6086 44.0436L34.427 44.0745L34.2454 44.1045C34.1855 44.1171 34.1276 44.1364 34.0677 44.1509L33.8911 44.1983C33.8322 44.2147 33.7762 44.2408 33.7193 44.2611C33.5348 44.3221 33.363 44.4139 33.1883 44.4971L32.94 44.647C32.8968 44.6702 32.8585 44.6992 32.8202 44.7282L32.7034 44.8143C32.3982 45.0503 32.1184 45.3239 31.9025 45.644C31.6404 46.0251 31.4775 46.4602 31.3695 46.8993L31.3391 47.0095L31.3205 47.1217L31.2832 47.347C31.2724 47.4225 31.2724 47.4989 31.2665 47.5743L31.2508 47.8248C31.2361 48.2648 31.0515 48.6951 30.7581 49.021C30.4665 49.3508 30.0543 49.5703 29.6185 49.6428L29.537 49.6544L29.4958 49.6602L29.4772 49.6622H29.4713L29.4202 49.6631C29.3947 49.6631 29.3712 49.6689 29.3506 49.6825C29.3309 49.696 29.3152 49.7163 29.3083 49.7395C29.3015 49.7627 29.3044 49.7869 29.3025 49.8121L29.3005 50.5673L29.3025 51.3381C29.3044 51.8516 29.3074 52.366 29.3093 52.8795C29.3123 53.9066 29.3054 54.9326 29.2632 55.9519C29.1857 57.8193 29.3741 59.6538 29.3093 61.5076C29.2691 62.6429 29.2396 63.7831 29.2416 64.9204C29.2445 66.2588 29.2877 67.5981 29.3123 68.9365L29.3319 70.157L29.3417 70.7672V70.8049L29.3427 70.8146V70.831L29.3466 70.862L29.3525 70.92L29.4163 70.9142L29.4458 70.9103L29.4595 70.9084H29.4664L29.5027 70.9064L30.1152 70.889C31.0015 70.861 31.9035 70.9625 32.7751 70.8146C32.8271 70.8059 32.8938 70.8039 32.9478 70.8107C33.8057 70.9277 34.6606 70.8619 35.5273 70.831C36.2664 70.8039 37.0182 70.8716 37.7642 70.889C38.9469 70.9132 40.1306 70.9374 41.3124 70.9616C41.8296 70.9751 42.3449 71.0109 42.8612 71.038C42.9181 71.0409 42.9829 71.0612 43.03 71.0534C43.5355 70.9732 44.038 70.9751 44.5425 70.9993C44.7948 71.0118 45.047 71.0293 45.3003 71.0447L45.4868 71.0563L45.5741 71.066C45.634 71.0718 45.6978 71.0766 45.7606 71.0786C45.7626 71.0293 45.7626 70.977 45.7606 70.9248C45.7596 70.8987 45.7577 70.8726 45.7557 70.8474L45.7518 70.8097L45.7469 70.7324C45.6742 69.6783 45.8264 68.572 45.8067 67.4937C45.7586 64.8208 45.897 62.1623 45.9245 59.4961C45.954 56.5592 46.0894 53.6251 46.1876 50.6911C46.1993 50.3372 46.2671 49.99 46.3878 49.6418C46.3966 49.8179 46.4104 49.9929 46.4133 50.1689C46.4457 52.4473 46.5046 54.7266 46.4987 57.005C46.4909 59.8259 46.4182 62.6458 46.3957 65.4667C46.3878 66.4909 46.4506 67.5159 46.4683 68.541C46.4752 68.953 46.4761 69.3659 46.4771 69.7779L46.4791 71.1656L46.482 71.7894L43.137 71.8068L40.2101 71.8155C38.2588 71.8155 36.3086 71.8058 34.3583 71.7719C33.4464 71.7565 32.5346 71.7449 31.6228 71.7371L30.2555 71.7275L28.5379 71.7226L28.5339 68.5526C28.5271 67.6107 28.5202 66.6698 28.5123 65.7278C28.4996 64.4803 28.5653 63.2309 28.5644 61.9824C28.5644 60.8123 28.5114 59.6422 28.5015 58.472C28.4937 57.5611 28.5241 56.6491 28.5212 55.7372L28.4966 50.4687L28.4937 49.8043C28.4937 49.7124 28.4898 49.6177 28.5035 49.5297C28.5163 49.4417 28.5428 49.3566 28.585 49.2782C28.6684 49.1216 28.8078 48.9939 28.9746 48.9272C29.0571 48.8933 29.1474 48.873 29.2338 48.8711L29.3643 48.8614L29.3957 48.8585L29.4104 48.8556L29.4409 48.8508L29.5017 48.8421L29.5616 48.8266C29.6018 48.8179 29.6401 48.8044 29.6784 48.7889C29.8305 48.7309 29.9719 48.6409 30.0837 48.522C30.1966 48.405 30.283 48.2638 30.335 48.112C30.3625 48.0365 30.3772 47.9572 30.388 47.8779L30.4027 47.5781L30.4116 47.3973C30.4145 47.3374 30.4165 47.2774 30.4273 47.2174L30.4813 46.8596C30.5382 46.6246 30.5922 46.3887 30.6844 46.1643C30.8582 45.7088 31.0996 45.2766 31.4127 44.8984C31.7258 44.5213 32.0988 44.1935 32.514 43.9285C32.62 43.8666 32.7231 43.7979 32.833 43.7418L33.1677 43.5823C33.3983 43.4933 33.63 43.4043 33.8724 43.3512L34.052 43.3057L34.2356 43.2767L34.4191 43.2486L34.5114 43.2351L34.6037 43.2293L34.9747 43.2109H35.3133L38.0105 43.2032L39.3591 43.1984L39.6958 43.1964H39.8646C39.9206 43.1955 39.9755 43.1945 40.0403 43.1984L40.4123 43.2148C40.536 43.2274 40.6587 43.2486 40.7813 43.2651C41.2652 43.3502 41.7432 43.4817 42.1977 43.6867C42.6472 43.8985 43.0683 44.1818 43.4197 44.5406C43.5041 44.6335 43.5964 44.7215 43.6729 44.8211L43.9026 45.1209C43.9713 45.2263 44.0371 45.3336 44.1028 45.441L44.1519 45.5212L44.1941 45.6054L44.2775 45.7746C44.4895 46.2301 44.6368 46.7175 44.6898 47.2174C44.7065 47.3412 44.7055 47.4669 44.7133 47.5917L44.7212 47.7667C44.7251 47.8015 44.7212 47.8364 44.728 47.8702C44.7447 48.0075 44.7909 48.139 44.8645 48.258C45.0097 48.4978 45.2718 48.6622 45.5515 48.7019C45.5869 48.7096 45.6232 48.7125 45.6605 48.727L45.6752 48.7318L45.7272 48.7377C45.7616 48.7415 45.7959 48.7502 45.8313 48.7589C45.9 48.7773 45.9677 48.8053 46.0315 48.8421C46.1591 48.9156 46.271 49.0239 46.3476 49.1622C46.4251 49.2985 46.4644 49.4687 46.4447 49.6409H46.4467Z" fill="#373737"/>
<path d="M40.4483 71.3764C40.3139 70.6705 40.1774 70.0419 40.0783 69.4075C39.9939 68.8688 39.9026 68.3321 39.9085 67.778C39.9173 66.955 39.8624 66.1321 39.8388 65.3091C39.83 64.9813 39.8368 64.6525 39.8309 64.3246C39.827 64.1283 39.8035 63.931 39.8054 63.7347L39.8388 62.1604C39.8417 61.8751 39.8388 61.5888 39.8359 61.3026L39.8329 60.8819C39.8329 60.8432 39.8329 60.8046 39.8368 60.762C39.7642 60.7572 39.7829 60.7475 39.4923 60.7301C38.7621 60.6711 38.0456 60.8142 37.3212 60.7649C36.8776 60.734 36.4319 60.7117 35.9873 60.7136C35.79 60.7136 35.5927 60.7195 35.3955 60.7262L35.2482 60.732L35.1991 60.7378L35.1138 60.7504L35.1295 60.8684C35.1295 60.8684 35.1334 60.9477 35.1354 61.0009L35.1412 61.1769L35.152 61.5279C35.1599 61.7619 35.1687 61.996 35.1844 62.23C35.206 62.5665 35.1265 62.9079 35.2433 63.2386C35.2502 63.2589 35.2522 63.2841 35.2463 63.3044C35.155 63.6303 35.206 63.9542 35.2306 64.283C35.2512 64.5635 35.1992 64.8488 35.1854 65.1321L35.1285 66.4783C35.1187 66.6746 35.0892 66.8699 35.0686 67.0662C35.0666 67.0885 35.05 67.1127 35.0568 67.1301C35.209 67.5952 34.9832 68.0546 35.048 68.5284C35.1039 68.9346 34.9871 69.3601 35.0019 69.7759C35.0117 70.0428 35.0117 70.3097 35.0058 70.5757L35.0009 70.7759L34.9979 70.8755L34.994 70.9586L34.9763 71.2062L35.205 71.2246L35.2355 71.2265L35.2747 71.2284L35.369 71.2333L35.5564 71.242C35.8067 71.2536 36.057 71.2633 36.3083 71.2681C37.4567 71.2903 38.6031 71.3928 39.7495 71.4683C39.8879 71.477 40.0233 71.5282 40.1598 71.6201C40.0911 71.6269 40.0223 71.6375 39.9536 71.6394C39.0634 71.6636 38.1722 71.7091 37.2819 71.7042C36.8687 71.7023 36.4565 71.6926 36.0442 71.681L35.4249 71.6626L35.2698 71.6578L35.0284 71.653L34.5307 71.6443L34.5494 70.5544C34.5553 70.1598 34.5072 69.7653 34.4934 69.3707C34.4826 69.0535 34.4895 68.7354 34.4856 68.4182C34.464 66.8912 34.4434 65.3642 34.4964 63.8382C34.516 63.2725 34.5278 62.7068 34.5327 62.141L34.5356 61.2919L34.5298 60.1711L35.2325 60.1653L35.6742 60.1576C36.162 60.1479 36.6498 60.1982 37.1377 60.1972C37.595 60.1972 38.0524 60.1576 38.5098 60.1489C38.8661 60.1431 39.2224 60.1663 39.5787 60.1634L40.4473 60.1586L40.4807 63.9272C40.4905 65.2917 40.4876 66.6562 40.5053 68.0207C40.5092 68.3582 40.5946 68.6938 40.6005 69.0313C40.6122 69.7102 40.6005 70.389 40.5867 71.0679C40.5848 71.154 40.5141 71.2391 40.4523 71.3735L40.4483 71.3764Z" fill="#373737"/>
<path d="M35.0278 48.7028C34.962 48.3721 34.9601 48.0501 35.0347 47.7358C35.0995 47.4708 35.2064 47.2029 35.3959 46.9815C35.6795 46.6604 36.0182 46.3761 36.4206 46.1972C36.502 46.1653 36.5845 46.1343 36.6669 46.1063L36.9212 46.0405C37.0242 46.0241 37.1263 45.9922 37.2323 45.9844C37.514 45.9622 37.7957 45.9951 38.0686 46.0521C38.4769 46.145 38.8832 46.3142 39.1904 46.5966C39.2611 46.6604 39.3269 46.7271 39.3995 46.7871L39.6007 46.9844C39.6616 47.0559 39.7254 47.1256 39.7803 47.2019C39.8304 47.2812 39.8854 47.3596 39.9217 47.4466C39.9658 47.554 40.013 47.6584 40.0444 47.7696C40.061 47.8247 40.0836 47.8779 40.0964 47.934L40.1386 48.1003C40.1582 48.1651 40.1661 48.2319 40.1788 48.2976C40.1906 48.3643 40.2063 48.4301 40.2093 48.4978L40.2279 48.6999L40.2259 48.903C40.2269 48.9649 40.2201 49.0258 40.2112 49.0877C40.2024 49.1486 40.1975 49.2105 40.1857 49.2714C40.1572 49.3923 40.1366 49.5151 40.0954 49.6331C40.0826 49.6757 40.066 49.7182 40.0493 49.7598C40.0306 49.8004 40.0071 49.8401 39.9874 49.8807C39.9668 49.9213 39.9482 49.9619 39.9325 50.0035C39.9148 50.0451 39.8971 50.0857 39.8863 50.1321C39.8834 50.1428 39.8775 50.1553 39.8687 50.1631C39.8059 50.2279 39.7489 50.2936 39.6979 50.3642C39.6714 50.399 39.6498 50.4377 39.6223 50.4725L39.5399 50.577C39.5163 50.607 39.4908 50.635 39.4633 50.6621C39.4339 50.6872 39.4044 50.7104 39.374 50.7336C39.3121 50.7801 39.2523 50.8274 39.1875 50.8671L39.0383 50.9686C38.9863 50.9996 38.9333 51.0276 38.8803 51.0566L38.8018 51.1001C38.7743 51.1127 38.7468 51.1243 38.7193 51.1369L38.5534 51.2065C38.4523 51.2365 38.3512 51.2636 38.2492 51.282C38.2374 51.2839 38.2227 51.2791 38.2148 51.2849C38.1608 51.3177 38.1019 51.34 38.0421 51.3555C37.9812 51.368 37.9194 51.37 37.8575 51.3719L37.7653 51.3748L37.672 51.3709C37.6102 51.369 37.5484 51.3709 37.4865 51.3825C37.3795 51.3912 37.2686 51.3825 37.1616 51.3593C37.0546 51.3313 36.9467 51.311 36.8417 51.2829C36.5766 51.2336 36.3283 51.1185 36.1055 50.9744C35.9917 50.9048 35.8915 50.8187 35.7895 50.7356C35.6952 50.6437 35.5971 50.5567 35.5137 50.4551C35.3232 50.2395 35.175 49.989 35.0798 49.7221C34.9856 49.4552 34.9414 49.1767 34.9365 48.9011C34.9375 48.8343 34.9601 48.7676 35.0033 48.7048C35.0082 48.7367 35.015 48.7686 35.018 48.8005L35.0307 48.9543L35.0602 49.1061C35.0739 49.2076 35.1142 49.3043 35.1397 49.403C35.2123 49.5944 35.2938 49.783 35.4057 49.9542C35.5392 50.1679 35.6962 50.372 35.8906 50.5402C36.082 50.7095 36.3008 50.8526 36.5393 50.9561C36.715 51.0257 36.9025 51.0595 37.088 51.0779C37.1626 51.0866 37.2362 51.0992 37.3118 51.1001C37.3864 51.1011 37.462 51.1137 37.5366 51.105C38.259 51.0769 38.9509 50.7298 39.4074 50.1766C39.6223 49.9223 39.7793 49.6186 39.8628 49.2966C39.9462 48.9746 39.955 48.6332 39.8932 48.3073L39.8795 48.2241L39.8598 48.1419L39.8235 47.9766C39.7882 47.8692 39.7607 47.758 39.7057 47.6574C39.6164 47.4631 39.4751 47.2977 39.3357 47.1391C39.2238 47.0182 39.1129 46.8935 38.9784 46.7948C38.4671 46.4061 37.7996 46.2397 37.1656 46.3258C36.5266 46.407 35.9259 46.7513 35.546 47.2619C35.5225 47.2938 35.5019 47.3267 35.4813 47.3596C35.4616 47.3934 35.4479 47.4311 35.4312 47.466L35.3841 47.5723C35.3684 47.6071 35.3566 47.6449 35.3399 47.6787C35.2084 47.9572 35.122 48.258 35.0975 48.5665C35.0945 48.6051 35.0572 48.6429 35.0239 48.7057L35.0278 48.7028Z" fill="#373737"/>
<path d="M33.7959 58.3241C33.7292 57.975 33.6625 57.6646 33.6124 57.3513C33.5702 57.0853 33.525 56.8194 33.528 56.5457C33.5319 56.1386 33.5054 55.7324 33.4936 55.3253C33.4887 55.1628 33.4927 55.0013 33.4897 54.8388C33.4877 54.7412 33.476 54.6445 33.4769 54.5478L33.4936 53.7693V53.5942L33.4927 53.5401L33.4367 53.542H33.2512C33.1177 53.5401 32.9852 53.5353 32.8527 53.5246C32.4915 53.4956 32.1372 53.5662 31.7789 53.542C31.56 53.5266 31.3392 53.5159 31.1193 53.5169C31.0222 53.5169 30.924 53.5198 30.8268 53.5237L30.7542 53.5266L30.7297 53.5295L30.6875 53.5362L30.6953 53.5942C30.6953 53.5942 30.6973 53.6329 30.6983 53.66L30.7012 53.747L30.7061 53.9211C30.71 54.0372 30.7149 54.1522 30.7218 54.2683C30.7326 54.4346 30.6934 54.6039 30.7503 54.7673C30.7542 54.777 30.7542 54.7895 30.7513 54.7992C30.7061 54.9597 30.7316 55.1203 30.7434 55.2827C30.7542 55.421 30.7277 55.5622 30.7208 55.7024L30.6924 56.3678C30.6875 56.4645 30.6727 56.5612 30.6629 56.6579C30.6619 56.6685 30.6541 56.6811 30.657 56.6898C30.7316 56.92 30.6207 57.1472 30.6531 57.3812C30.6806 57.5824 30.6227 57.7922 30.6305 57.9982C30.6345 58.1297 30.6354 58.1616 30.6335 58.2264L31.139 58.2487C31.3412 58.2584 31.5433 58.269 31.7455 58.2729C32.3129 58.2845 32.8802 58.3348 33.4465 58.3715C33.5152 58.3763 33.582 58.4015 33.6497 58.4469C33.6153 58.4498 33.582 58.4556 33.5476 58.4566C33.1069 58.4682 32.6672 58.4914 32.2265 58.4885C31.9536 58.4875 31.6817 58.4798 31.4089 58.4711L31.0006 58.4585L30.7964 58.4537L30.5 58.4498H30.4067L30.4028 58.2439C30.4009 58.1771 30.3979 58.094 30.395 58.0611C30.3891 57.9731 30.3822 57.8851 30.3793 57.7971C30.3744 57.6404 30.3773 57.4828 30.3753 57.3261C30.3645 56.5718 30.3547 55.8165 30.3812 55.0622C30.391 54.7828 30.3969 54.5023 30.3989 54.2228V53.8031L30.3969 53.249L30.7444 53.2461L30.9623 53.2422C31.2037 53.2374 31.4452 53.2625 31.6857 53.2616C31.9114 53.2616 32.1382 53.2422 32.3639 53.2374C32.5396 53.2345 32.7163 53.2461 32.892 53.2451L33.7959 53.2384L33.8077 54.6425L33.8195 56.6656C33.8215 56.832 33.8637 56.9983 33.8666 57.1646C33.8725 57.5002 33.8666 57.8358 33.8597 58.1713C33.8597 58.2139 33.8234 58.2555 33.793 58.3222L33.7959 58.3241Z" fill="#373737"/>
<path d="M39.1827 58.3241C39.1159 57.975 39.0492 57.6646 38.9991 57.3513C38.9569 57.0853 38.9118 56.8194 38.9147 56.5457C38.9186 56.1386 38.8921 55.7324 38.8803 55.3253C38.8754 55.1628 38.8794 55.0013 38.8764 54.8388C38.8745 54.7412 38.8627 54.6445 38.8637 54.5478L38.8803 53.7693V53.5942L38.8794 53.5401L38.8234 53.542H38.6379C38.5044 53.5401 38.3719 53.5353 38.2394 53.5246C37.8782 53.4956 37.5239 53.5662 37.1656 53.542C36.9468 53.5266 36.7259 53.5159 36.506 53.5169C36.4089 53.5169 36.3107 53.5198 36.2136 53.5237L36.1409 53.5266L36.1164 53.5295L36.0742 53.5362L36.082 53.5942C36.082 53.5942 36.084 53.6329 36.085 53.66L36.0879 53.747L36.0928 53.9211C36.0968 54.0372 36.1017 54.1522 36.1085 54.2683C36.1193 54.4346 36.0801 54.6039 36.137 54.7673C36.1409 54.777 36.1409 54.7895 36.138 54.7992C36.0928 54.9597 36.1183 55.1203 36.1301 55.2827C36.1409 55.421 36.1144 55.5622 36.1076 55.7024L36.0791 56.3678C36.0742 56.4645 36.0595 56.5612 36.0496 56.6579C36.0487 56.6685 36.0408 56.6811 36.0438 56.6898C36.1183 56.92 36.0074 57.1472 36.0398 57.3812C36.0673 57.5824 36.0094 57.7922 36.0173 57.9982C36.0212 58.1297 36.0222 58.1616 36.0202 58.2264L36.5257 58.2487C36.7279 58.2584 36.9301 58.269 37.1323 58.2729C37.6996 58.2845 38.2669 58.3348 38.8332 58.3715C38.9019 58.3763 38.9687 58.4015 39.0364 58.4469C39.0021 58.4498 38.9687 58.4556 38.9343 58.4566C38.4936 58.4682 38.0539 58.4914 37.6132 58.4885C37.3403 58.4875 37.0685 58.4798 36.7956 58.4711L36.3873 58.4585L36.1831 58.4537L35.8867 58.4498H35.7935L35.7895 58.2439C35.7876 58.1771 35.7846 58.094 35.7817 58.0611C35.7758 57.9731 35.7689 57.8851 35.766 57.7971C35.7611 57.6404 35.764 57.4828 35.7621 57.3261C35.7513 56.5718 35.7414 55.8165 35.7679 55.0622C35.7778 54.7828 35.7836 54.5023 35.7856 54.2228V53.8031L35.7837 53.249L36.1311 53.2461L36.349 53.2422C36.5905 53.2374 36.8319 53.2625 37.0724 53.2616C37.2981 53.2616 37.5249 53.2422 37.7506 53.2374C37.9263 53.2345 38.103 53.2461 38.2787 53.2451L39.1827 53.2384L39.1944 54.6425L39.2062 56.6656C39.2082 56.832 39.2504 56.9983 39.2533 57.1646C39.2592 57.5002 39.2533 57.8358 39.2465 58.1713C39.2465 58.2139 39.2101 58.2555 39.1797 58.3222L39.1827 58.3241Z" fill="#373737"/>
<path d="M44.5694 58.3241C44.5026 57.975 44.4359 57.6646 44.3858 57.3513C44.3436 57.0853 44.2985 56.8194 44.3014 56.5457C44.3053 56.1386 44.2788 55.7324 44.2671 55.3253C44.2622 55.1628 44.2661 55.0013 44.2631 54.8388C44.2612 54.7412 44.2494 54.6445 44.2504 54.5478L44.2671 53.7693V53.5942L44.2661 53.5401L44.2101 53.542H44.0246C43.8911 53.5401 43.7586 53.5353 43.6261 53.5246C43.2649 53.4956 42.9106 53.5662 42.5533 53.542C42.3345 53.5266 42.1136 53.5159 41.8937 53.5169C41.7966 53.5169 41.6984 53.5198 41.6013 53.5237L41.5286 53.5266L41.5041 53.5295L41.4619 53.5362L41.4697 53.5942C41.4697 53.5942 41.4717 53.6329 41.4727 53.66L41.4756 53.747L41.4805 53.9211C41.4845 54.0372 41.4894 54.1522 41.4962 54.2683C41.507 54.4346 41.4678 54.6039 41.5247 54.7673C41.5286 54.777 41.5286 54.7895 41.5257 54.7992C41.4805 54.9597 41.506 55.1203 41.5178 55.2827C41.5286 55.421 41.5021 55.5622 41.4952 55.7024L41.4668 56.3678C41.4619 56.4645 41.4472 56.5612 41.4373 56.6579C41.4364 56.6685 41.4285 56.6811 41.4314 56.6898C41.506 56.92 41.3951 57.1472 41.4275 57.3812C41.455 57.5824 41.3971 57.7922 41.4049 57.9982C41.4089 58.1297 41.4099 58.1616 41.4079 58.2264L41.9134 58.2487C42.1156 58.2584 42.3178 58.269 42.52 58.2729C43.0873 58.2845 43.6546 58.3348 44.2209 58.3715C44.2896 58.3763 44.3564 58.4015 44.4241 58.4469C44.3898 58.4498 44.3564 58.4556 44.322 58.4566C43.8813 58.4682 43.4416 58.4914 43.0009 58.4885C42.728 58.4875 42.4562 58.4798 42.1833 58.4711L41.775 58.4585L41.5708 58.4537L41.2744 58.4498H41.1812L41.1772 58.2439C41.1753 58.1771 41.1723 58.094 41.1694 58.0611C41.1635 57.9731 41.1566 57.8851 41.1537 57.7971C41.1488 57.6404 41.1517 57.4828 41.1498 57.3261C41.139 56.5718 41.1291 55.8165 41.1556 55.0622C41.1655 54.7828 41.1713 54.5023 41.1733 54.2228V53.8031L41.1713 53.249L41.5188 53.2461L41.7367 53.2422C41.9782 53.2374 42.2196 53.2625 42.4601 53.2616C42.6858 53.2616 42.9126 53.2422 43.1383 53.2374C43.314 53.2345 43.4907 53.2461 43.6664 53.2451L44.5704 53.2384L44.5821 54.6425L44.5939 56.6656C44.5959 56.832 44.6381 56.9983 44.641 57.1646C44.6469 57.5002 44.641 57.8358 44.6342 58.1713C44.6342 58.2139 44.5978 58.2555 44.5674 58.3222L44.5694 58.3241Z" fill="#373737"/>
<path d="M33.7959 66.6107C33.7292 66.2616 33.6625 65.9512 33.6124 65.6379C33.5702 65.3719 33.525 65.106 33.528 64.8323C33.5319 64.4252 33.5054 64.019 33.4936 63.6119C33.4887 63.4494 33.4927 63.287 33.4897 63.1255C33.4877 63.0278 33.476 62.9311 33.4769 62.8344L33.4936 62.0559V61.8809L33.4927 61.8267L33.4367 61.8286H33.2512C33.1177 61.8267 32.9852 61.8219 32.8527 61.8112C32.4915 61.7822 32.1372 61.8528 31.7789 61.8286C31.56 61.8132 31.3392 61.8025 31.1193 61.8035C31.0222 61.8035 30.924 61.8064 30.8268 61.8103L30.7542 61.8132L30.7297 61.8161L30.6875 61.8228L30.6953 61.8809C30.6953 61.8809 30.6973 61.9196 30.6983 61.9466L30.7012 62.0337L30.7061 62.2077C30.71 62.3238 30.7149 62.4389 30.7218 62.5549C30.7326 62.7212 30.6934 62.8905 30.7503 63.0539C30.7542 63.0636 30.7542 63.0761 30.7513 63.0858C30.7061 63.2463 30.7316 63.4069 30.7434 63.5693C30.7542 63.7076 30.7277 63.8488 30.7208 63.9891L30.6924 64.6544C30.6875 64.7511 30.6727 64.8478 30.6629 64.9445C30.6619 64.9551 30.6541 64.9677 30.657 64.9764C30.7316 65.2066 30.6207 65.4338 30.6531 65.6679C30.6806 65.869 30.6227 66.0789 30.6305 66.2848C30.6345 66.4164 30.6354 66.4483 30.6335 66.5131L31.139 66.5353C31.3412 66.545 31.5433 66.5556 31.7455 66.5595C32.3129 66.5711 32.8802 66.6214 33.4465 66.6581C33.5152 66.663 33.582 66.6881 33.6497 66.7336C33.6153 66.7365 33.582 66.7423 33.5476 66.7432C33.1069 66.7548 32.6672 66.778 32.2265 66.7751C31.9536 66.7742 31.6817 66.7664 31.4089 66.7577L31.0006 66.7452L30.7964 66.7403L30.5 66.7365H30.4067L30.4028 66.5305C30.4009 66.4637 30.3979 66.3806 30.395 66.3477C30.3891 66.2597 30.3822 66.1717 30.3793 66.0837C30.3744 65.927 30.3773 65.7694 30.3753 65.6127C30.3645 64.8584 30.3547 64.1032 30.3812 63.3489C30.391 63.0694 30.3969 62.7889 30.3989 62.5095V62.0898L30.3969 61.5356L30.7444 61.5327L30.9623 61.5289C31.2037 61.524 31.4452 61.5492 31.6857 61.5482C31.9114 61.5482 32.1382 61.5289 32.3639 61.524C32.5396 61.5211 32.7163 61.5327 32.892 61.5318L33.7959 61.525L33.8077 62.9292L33.8195 64.9522C33.8215 65.1186 33.8637 65.2849 33.8666 65.4512C33.8725 65.7868 33.8666 66.1224 33.8597 66.4579C33.8597 66.5005 33.8234 66.5421 33.793 66.6088L33.7959 66.6107Z" fill="#373737"/>
<path d="M44.5694 66.6107C44.5026 66.2616 44.4359 65.9512 44.3858 65.6379C44.3436 65.3719 44.2985 65.106 44.3014 64.8323C44.3053 64.4252 44.2788 64.019 44.2671 63.6119C44.2622 63.4494 44.2661 63.287 44.2631 63.1255C44.2612 63.0278 44.2494 62.9311 44.2504 62.8344L44.2671 62.0559V61.8809L44.2661 61.8267L44.2101 61.8286H44.0246C43.8911 61.8267 43.7586 61.8219 43.6261 61.8112C43.2649 61.7822 42.9106 61.8528 42.5533 61.8286C42.3345 61.8132 42.1136 61.8025 41.8937 61.8035C41.7966 61.8035 41.6984 61.8064 41.6013 61.8103L41.5286 61.8132L41.5041 61.8161L41.4619 61.8228L41.4697 61.8809C41.4697 61.8809 41.4717 61.9196 41.4727 61.9466L41.4756 62.0337L41.4805 62.2077C41.4845 62.3238 41.4894 62.4389 41.4962 62.5549C41.507 62.7212 41.4678 62.8905 41.5247 63.0539C41.5286 63.0636 41.5286 63.0761 41.5257 63.0858C41.4805 63.2463 41.506 63.4069 41.5178 63.5693C41.5286 63.7076 41.5021 63.8488 41.4952 63.9891L41.4668 64.6544C41.4619 64.7511 41.4472 64.8478 41.4373 64.9445C41.4364 64.9551 41.4285 64.9677 41.4314 64.9764C41.506 65.2066 41.3951 65.4338 41.4275 65.6679C41.455 65.869 41.3971 66.0789 41.4049 66.2848C41.4089 66.4164 41.4099 66.4483 41.4079 66.5131L41.9134 66.5353C42.1156 66.545 42.3178 66.5556 42.52 66.5595C43.0873 66.5711 43.6546 66.6214 44.2209 66.6581C44.2896 66.663 44.3564 66.6881 44.4241 66.7336C44.3898 66.7365 44.3564 66.7423 44.322 66.7432C43.8813 66.7548 43.4416 66.778 43.0009 66.7751C42.728 66.7742 42.4562 66.7664 42.1833 66.7577L41.775 66.7452L41.5708 66.7403L41.2744 66.7365H41.1812L41.1772 66.5305C41.1753 66.4637 41.1723 66.3806 41.1694 66.3477C41.1635 66.2597 41.1566 66.1717 41.1537 66.0837C41.1488 65.927 41.1517 65.7694 41.1498 65.6127C41.139 64.8584 41.1291 64.1032 41.1556 63.3489C41.1655 63.0694 41.1713 62.7889 41.1733 62.5095V62.0898L41.1713 61.5356L41.5188 61.5327L41.7367 61.5289C41.9782 61.524 42.2196 61.5492 42.4601 61.5482C42.6858 61.5482 42.9126 61.5289 43.1383 61.524C43.314 61.5211 43.4907 61.5327 43.6664 61.5318L44.5704 61.525L44.5821 62.9292L44.5939 64.9522C44.5959 65.1186 44.6381 65.2849 44.641 65.4512C44.6469 65.7868 44.641 66.1224 44.6342 66.4579C44.6342 66.5005 44.5978 66.5421 44.5674 66.6088L44.5694 66.6107Z" fill="#373737"/>
</g>
<path d="M79.446 54.475C80.64 54.475 81.471 54.688 81.939 55.114C82.407 55.534 82.641 56.128 82.641 56.896C82.641 57.424 82.548 57.874 82.362 58.246C82.176 58.612 81.849 58.9 81.381 59.11C80.913 59.314 80.268 59.416 79.446 59.416H77.574V61H75.36C75.408 59.836 75.432 58.747 75.432 57.733C75.432 56.719 75.408 55.63 75.36 54.466H77.574V54.475H79.446ZM78.816 57.679C79.314 57.679 79.686 57.661 79.932 57.625C80.184 57.583 80.358 57.511 80.454 57.409C80.556 57.307 80.607 57.157 80.607 56.959C80.607 56.761 80.559 56.614 80.463 56.518C80.373 56.416 80.202 56.347 79.95 56.311C79.704 56.275 79.326 56.257 78.816 56.257H77.574V57.679H78.816ZM88.1406 61C88.0266 60.658 87.8736 60.229 87.6816 59.713H84.8106L84.3606 61H82.1016L84.6216 54.466H87.9336L90.4716 61H88.1406ZM87.1686 58.309C86.9406 57.679 86.7066 57.049 86.4666 56.419L86.2506 55.834C86.0406 56.38 85.7316 57.205 85.3236 58.309H87.1686ZM96.7111 58.543L97.1791 54.466H99.3751L98.1691 61H95.4061L94.7941 57.355L94.0831 61H91.4371L90.2311 54.466H92.4271L92.8861 58.489L93.6061 54.466H96.0091L96.7111 58.543ZM100.092 60.226C100.296 59.92 100.464 59.635 100.596 59.371C100.734 59.107 100.866 58.801 100.992 58.453C101.418 58.699 101.913 58.891 102.477 59.029C103.041 59.167 103.566 59.236 104.052 59.236C104.55 59.236 104.901 59.194 105.105 59.11C105.309 59.02 105.411 58.924 105.411 58.822C105.411 58.456 104.853 58.273 103.737 58.273C102.513 58.273 101.625 58.147 101.073 57.895C100.521 57.637 100.245 57.223 100.245 56.653C100.245 55.843 100.581 55.246 101.253 54.862C101.925 54.478 102.798 54.286 103.872 54.286C104.496 54.286 105.135 54.367 105.789 54.529C106.449 54.685 107.043 54.901 107.571 55.177C107.397 55.573 107.214 56.056 107.022 56.626C106.986 56.746 106.956 56.836 106.932 56.896C106.626 56.65 106.164 56.446 105.546 56.284C104.928 56.116 104.382 56.032 103.908 56.032C103.338 56.032 102.954 56.071 102.756 56.149C102.558 56.221 102.459 56.329 102.459 56.473C102.459 56.617 102.594 56.734 102.864 56.824C103.14 56.908 103.536 56.95 104.052 56.95C105.324 56.95 106.248 57.097 106.824 57.391C107.4 57.679 107.688 58.123 107.688 58.723C107.688 59.563 107.382 60.169 106.77 60.541C106.158 60.907 105.231 61.09 103.989 61.09C103.323 61.09 102.645 61.018 101.955 60.874C101.265 60.724 100.644 60.508 100.092 60.226ZM113.636 56.257C112.922 56.221 112.394 56.2 112.052 56.194V59.272C112.4 59.266 112.928 59.245 113.636 59.209V61H108.407V59.209C109.097 59.245 109.622 59.266 109.982 59.272V56.194C109.622 56.2 109.097 56.221 108.407 56.257V54.466H113.636V56.257ZM122.088 56.356C121.146 56.326 120.231 56.308 119.343 56.302V61H117.093V56.302C116.199 56.308 115.287 56.326 114.357 56.356V54.466H122.088V56.356ZM128.041 56.257C127.327 56.221 126.799 56.2 126.457 56.194V59.272C126.805 59.266 127.333 59.245 128.041 59.209V61H122.812V59.209C123.502 59.245 124.027 59.266 124.387 59.272V56.194C124.027 56.2 123.502 56.221 122.812 56.257V54.466H128.041V56.257ZM136.412 54.466L135.818 55.843C135.296 57.061 134.885 58.036 134.585 58.768C134.285 59.5 134.009 60.244 133.757 61H131.066C130.82 60.256 130.547 59.521 130.247 58.795C129.953 58.063 129.557 57.127 129.059 55.987C128.975 55.795 128.756 55.288 128.402 54.466H130.904C131.084 55.048 131.351 55.795 131.705 56.707C132.017 57.511 132.269 58.207 132.461 58.795C132.587 58.381 132.737 57.94 132.911 57.472C133.091 56.998 133.199 56.71 133.235 56.608C133.583 55.69 133.838 54.976 134 54.466H136.412ZM139.016 59.353C141.296 59.341 142.949 59.308 143.975 59.254C143.933 59.5 143.906 59.755 143.894 60.019C143.888 60.277 143.885 60.604 143.885 61H136.892C136.94 59.836 136.964 58.747 136.964 57.733C136.964 56.719 136.94 55.63 136.892 54.466H143.885V56.095H139.016V56.959C139.304 56.965 139.73 56.968 140.294 56.968C141.248 56.968 142.235 56.95 143.255 56.914V58.462C142.235 58.426 141.248 58.408 140.294 58.408C139.73 58.408 139.304 58.411 139.016 58.417V59.353ZM82.902 67.466C82.86 68.48 82.839 69.569 82.839 70.733C82.839 71.897 82.86 72.986 82.902 74H80.787V71.552H77.475V74H75.36C75.408 72.836 75.432 71.747 75.432 70.733C75.432 69.719 75.408 68.63 75.36 67.466H77.475V69.914H80.787V67.466H82.902ZM89.3007 74C89.1867 73.658 89.0337 73.229 88.8417 72.713H85.9707L85.5207 74H83.2617L85.7817 67.466H89.0937L91.6317 74H89.3007ZM88.3287 71.309C88.1007 70.679 87.8667 70.049 87.6267 69.419L87.4107 68.834C87.2007 69.38 86.8917 70.205 86.4837 71.309H88.3287ZM97.791 74C97.677 73.658 97.524 73.229 97.332 72.713H94.461L94.011 74H91.752L94.272 67.466H97.584L100.122 74H97.791ZM96.819 71.309C96.591 70.679 96.357 70.049 96.117 69.419L95.901 68.834C95.691 69.38 95.382 70.205 94.974 71.309H96.819ZM107.829 69.644C107.829 70.166 107.7 70.607 107.442 70.967C107.19 71.327 106.755 71.588 106.137 71.75C106.209 71.846 106.26 71.921 106.29 71.975L107.748 74H105.3C105.036 73.508 104.619 72.812 104.049 71.912H102.726V74H100.602C100.65 72.836 100.674 71.747 100.674 70.733C100.674 69.719 100.65 68.63 100.602 67.466H102.726V67.475H104.571C105.783 67.475 106.629 67.67 107.109 68.06C107.589 68.45 107.829 68.978 107.829 69.644ZM102.726 69.203V70.229H103.941C104.451 70.229 104.835 70.214 105.093 70.184C105.357 70.148 105.54 70.094 105.642 70.022C105.744 69.95 105.795 69.845 105.795 69.707C105.795 69.575 105.747 69.473 105.651 69.401C105.555 69.329 105.375 69.278 105.111 69.248C104.847 69.218 104.457 69.203 103.941 69.203H102.726ZM110.744 72.182C112.484 72.17 113.924 72.14 115.064 72.092C114.986 72.398 114.938 72.692 114.92 72.974C114.902 73.256 114.893 73.598 114.893 74H108.548C108.596 72.836 108.62 71.747 108.62 70.733C108.62 69.719 108.596 68.63 108.548 67.466H110.744V72.182ZM117.905 72.353C120.185 72.341 121.838 72.308 122.864 72.254C122.822 72.5 122.795 72.755 122.783 73.019C122.777 73.277 122.774 73.604 122.774 74H115.781C115.829 72.836 115.853 71.747 115.853 70.733C115.853 69.719 115.829 68.63 115.781 67.466H122.774V69.095H117.905V69.959C118.193 69.965 118.619 69.968 119.183 69.968C120.137 69.968 121.124 69.95 122.144 69.914V71.462C121.124 71.426 120.137 71.408 119.183 71.408C118.619 71.408 118.193 71.411 117.905 71.417V72.353ZM131.825 67.466L132.527 74H130.196L130.052 69.338L129.152 74H126.794L125.876 69.374L125.741 74H123.41L124.112 67.466H127.172L127.955 71.723L128.639 67.466H131.825Z" fill="#373737"/>
<defs>
<clipPath id="clip0_222_1057">
<rect width="75" height="75" fill="white"/>
</clipPath>
</defs>
</svg>
